COVER ::
 
http://i.minus.com/ihWrDkmffm9lj.png


SCREEN ::
 
http://i.minus.com/iym32asdLPoIG.png
 
http://i.minus.com/i8Gin753dJGcK.png
 
http://i.minus.com/ibwgwMkD2q7G6p.png
 
http://i.minus.com/i4LuHW1QxSVpS.png
 
http://i.minus.com/ixIX7WVHHsMRc.png
 
http://i.minus.com/iggDeF3w7ILiV.png
 
http://i.minus.com/iONzRqO3ksF39.png
 
http://i.minus.com/iNECIaYX1MYhv.png


General ::
Format                           : AVI
Format/Info                      : Audio Video Interleave
File size                        : 92.7 MiB
Duration                         : 4mn 15s
Overall bit rate                 : 3 047 Kbps


Video Info ::
ID                               : 0
Format                           : AVC
Format/Info                      : Advanced Video Codec
Format profile                   : High@L5.1
Format settings, CABAC           : Yes
Format settings, ReFrames        : 2 frames
Codec ID                         : H264
Duration                         : 10s 0ms
Bit rate                         : 2 713 Kbps
Width                            : 1 280 pixels
Height                           : 544 pixels
Display aspect ratio             : 2.35:1
Frame rate                       : 30.000 fps
Color space                      : YUV
Chroma subsampling               : 4:2:0
Bit depth                        : 8 bits
Scan type                        : Progressive
Bits/(Pixel*Frame)               : 0.130
Stream size                      : 82.6 MiB (89%)


Audio Info ::
ID                               : 1
Format                           : MPEG Audio
Format version                   : Version 1
Format profile                   : Layer 3
Codec ID                         : 55
Codec ID/Hint                    : MP3
Duration                         : 4mn 15s
Bit rate mode                    : Constant
Bit rate                         : 320 Kbps
Channel(s)                       : 2 channels
Sampling rate                    : 44.1 KHz
Compression mode                 : Lossy
Stream size                      : 9.73 MiB (11%)